<svg xmlns="http://www.w3.org/2000/svg" width="1130" height="720" viewBox="0 0 1130 720">
  <g fill="none">
    <rect width="1130" height="720" fill="#FFFFFF"/>
    <g fill="#000000" transform="translate(138 287)">
      <path d="M104.749526 4.04358581C111.481452 4.23051484 114.93372 4.43196387 119.112406 4.43196387 123.298281 4.43196387 127.843769 4.23779613 132.389257 4.04358581 133.475283 5.20154516 133.475283 9.28673226 132.389257 10.4518665 122.931479 12.0053787 118.982946 19.3989968 114.50938 28.5043568L101.218143 55.5111735 124.477808 106.935606 125.312105 106.935606 159.849183 27.1450335C164.157327 16.6371735 163.848062 11.4156155 152.03123 10.4518665 150.938012 9.28673226 150.938012 5.20872 152.03123 4.04358581 160.575596 4.23051484 165.8475 4.43196387 170.033377 4.43196387 174.219253 4.43196387 178.764741 4.23779613 186.036082 4.04358581 187.129302 5.20154516 187.129302 9.28673226 186.036082 10.4518665 174.032255 12.0053787 171.946509 19.4205639 168.163397 28.5043568L125.117916 127.51975C123.844891 130.432606 122.751673 131.986119 120.759425 131.986119 118.939792 131.986119 117.537307 130.411018 116.57355 127.51975L92.1127829 71.1614555 65.2929654 127.51975C64.2069397 130.432606 62.9267228 131.986119 60.9272847 131.986119 59.1148438 131.986119 57.8346269 130.432606 56.748599 127.51975L17.1913481 28.1231748C11.6461407 14.3356684 11.2793372 11.4300077.915337181 10.4590626-.177881412 9.2939071-.357687106 5.21591613.735531465 4.05078194 9.27989783 4.23771097 12.3725556 4.43916 19.6438978 4.43916 26.7354333 4.43916 31.2809214 4.24499226 39.8324797 4.05078194 40.9256994 5.20872 40.9256994 9.2939071 39.8324797 10.4590626 28.3752629 11.8111897 27.8861901 14.8822761 32.453256 25.9870742L65.7460767 106.942781 66.5803742 106.942781 86.8912248 62.8328516 71.5645877 28.1231748C65.4727728 14.3356684 64.0199425 11.6241968 56.1947994 10.4590626 55.1087715 9.2939071 54.9217744 5.21591613 56.0150026 4.05078194 61.8335158 4.23771097 64.9261736 4.43916 72.197515 4.43916 79.289051 4.43916 82.2019035 4.24499226 88.7468319 4.05078194 89.8400495 5.20872 89.8400495 9.2939071 88.7468319 10.4590626 81.1086859 11.6241968 81.8351011 14.9182355 86.8193146 25.9870742L95.766445 45.6002729 96.5647831 46.4705361 106.202367 27.1522084C111.819497 15.8963768 112.567488 11.6241968 104.749537 10.4590626 103.656319 9.27953613 103.656319 5.20154516 104.749537 4.04358581L104.749526 4.04358581zM209.813587 105.964639C209.813587 122.075239 211.813027 122.859192 222.903439 123.628752 223.996655 124.793907 223.996655 128.871898 222.903439 130.037032 215.085484 129.850103 210.540002 129.648654 202.722051 129.648654 194.717103 129.648654 189.991809 129.842822 182.353663 130.037032 181.267635 128.871898 181.267635 124.793907 182.353663 123.628752 193.444077 122.657806 195.45071 122.075239 195.45071 105.964639L195.45071 64.0267703C195.45071 47.9161703 193.451269 47.1394142 182.353663 46.3626581 181.267635 45.1975239 181.267635 41.1195329 182.353663 39.9543774 190.171614 40.1485452 194.717103 40.3427555 202.542246 40.3427555 210.540002 40.3427555 215.272498 40.1558265 222.910635 39.9543774 224.003851 41.1195329 224.003851 45.1975239 222.910635 46.3626581 211.820219 47.3336032 209.820779 47.9161703 209.820779 64.0267703L209.820779 105.964639 209.813587 105.964639zM240.171977 46.3626581C239.085958 45.1975239 239.085958 41.1195329 240.171977 39.9543774 247.810136 40.1485452 252.535417 40.3427555 260.540365 40.3427555 267.272301 40.3427555 270.177962 40.1558265 277.995896 39.9543774 279.081937 41.1195329 279.081937 45.1975239 277.995896 46.3626581 269.264543 47.3336032 267.631895 47.9161703 267.631895 64.0267703L267.631895 81.3025045C273.63023 81.3025045 278.959666 78.2386142 286.72727 68.8743213 300.730533 51.9869865 302.550174 46.938029 293.459185 46.3554619 292.36597 45.1903277 292.36597 41.1123368 293.459185 39.9471813 301.277141 40.141349 308.188874 40.3355806 313.460783 40.3355806 318.186064 40.3355806 321.278739 40.1486516 326.191012 39.9471813 327.277053 41.1123368 327.277053 45.1903277 326.191012 46.3554619 318.919686 46.74384 312.245297 47.7291774 306.728847 54.5114439L291.092957 73.7290897C288.000304 77.2245135 286.907067 79.3605929 286.907067 80.9141265 286.907067 82.0792606 287.633493 83.0502058 288.546912 84.21534L315.460221 117.997248C317.840841 120.946065 322.192136 123.038988 327.097235 123.621555 328.183275 124.786711 328.183275 128.670513 327.097235 129.835647 327.097235 129.835647 318.186064 129.641479 313.093972 129.641479 308.361495 129.641479 303.816012 129.835647 301.816552 130.029857L301.816552 127.31119C301.816552 124.786732 301.636862 122.657828 299.09071 119.550782L278.909315 92.7525465C276.183472 88.8687445 271.630792 87.8977994 267.631895 87.8977994L267.631895 105.957486C267.631895 122.068065 269.271739 122.650632 277.995896 123.621577 279.081937 124.786732 279.081937 128.864723 277.995896 130.029857 270.177962 129.842928 267.265105 129.641479 260.540365 129.641479 252.535417 129.641479 247.810136 129.835647 240.171977 130.029857 239.085958 128.864723 239.085958 124.786732 240.171977 123.621577 251.262405 122.650632 253.261843 122.068065 253.261843 105.957486L253.261843 64.0195955C253.261843 47.9090168 251.262405 47.3264284 240.171977 46.3626794L240.171977 46.3626581zM368.351855 105.964639C368.351855 122.075239 370.351293 122.859192 381.44172 123.628752 382.534935 124.793907 382.534935 128.871898 381.44172 130.037032 373.623765 129.850103 369.078281 129.648654 361.260325 129.648654 353.255377 129.648654 348.530075 129.842822 340.891937 130.037032 339.805918 128.871898 339.805918 124.793907 340.891937 123.628752 351.982343 122.657806 353.981781 122.075239 353.981781 105.964639L353.981781 64.0267703C353.981781 47.9161703 351.982343 47.1394142 340.891937 46.3626581 339.805918 45.1975239 339.805918 41.1195329 340.891937 39.9543774 348.709893 40.1485452 353.255377 40.3427555 361.080507 40.3427555 369.078281 40.3427555 373.810757 40.1558265 381.448916 39.9543774 382.542132 41.1195329 382.542132 45.1975239 381.448916 46.3626581 370.358489 47.3336032 368.359051 47.9161703 368.359051 64.0267703L368.359051 105.964639 368.351855 105.964639zM439.806648 123.628752C440.892668 124.793907 440.892668 128.871898 439.806648 130.037032 431.981497 129.850103 427.436013 129.648654 419.618057 129.648654 411.620305 129.648654 406.887807 129.842822 399.24967 130.037032 398.156454 128.871898 398.156454 124.793907 399.24967 123.628752 410.340075 122.657806 412.339514 122.075239 412.339514 105.964639L412.339514 64.0267703C412.339514 47.9161703 410.340075 47.1394142 399.24967 46.3626581 398.156454 45.1975239 398.156454 41.1195329 399.24967 39.9543774 407.067625 40.1485452 411.613109 40.3427555 419.431065 40.3427555 424.343359 40.3427555 431.981497 39.9543774 438.706237 39.9543774 464.526331 39.9543774 469.99243 53.5476948 469.99243 63.6383923 469.99243 75.2897981 462.534089 93.9248555 438.159629 93.9248555 433.614124 93.9248555 429.982059 93.1552955 426.709587 91.5945658L426.709587 105.964639C426.709587 122.075239 428.709025 122.851995 439.806648 123.628752L439.806648 123.628752zM426.709587 85.3804955C430.341674 86.9340077 434.887157 87.5165748 438.526419 87.5165748 449.444224 87.5165748 454.169526 79.9647484 454.169526 65.9686606 454.169526 52.3537761 448.343812 46.3554619 437.620196 46.3554619 428.888843 46.3554619 426.709587 48.8799406 426.709587 55.094011L426.709587 85.3804955 426.709587 85.3804955zM511.247028 85.9630626L511.247028 115.084392C511.247028 118.774005 513.793095 123.628752 517.065546 123.628752L532.16922 123.628752C543.619262 123.628752 548.898346 113.919257 551.804007 102.469215 553.796249 101.886648 555.256275 102.282286 556.888924 103.245993 555.61589 111.401975 553.616452 122.075239 551.437196 130.037032 551.437196 130.037032 539.433372 129.648654 532.162045 129.648654L504.148303 129.648654C504.148303 129.648654 491.418074 129.842822 483.779915 130.037032 482.693895 128.871898 482.693895 124.793907 483.779915 123.628752 494.877517 122.657806 496.86978 122.075239 496.86978 105.964639L496.86978 64.0267703C496.86978 47.9161703 494.877517 47.1394142 483.779915 46.3626581 482.693895 45.1975239 482.693895 41.1195329 483.779915 39.9543774 491.605066 40.1485452 503.968506 40.3427555 503.968506 40.3427555L541.612628 40.3427555C545.251889 40.3427555 546.517726 39.9543774 549.063772 39.5731955 549.430583 39.5731955 549.61038 39.7601245 549.61038 40.1557626 549.969995 41.507911 552.156426 56.6547406 552.882852 63.257189 551.430021 64.0267703 549.790177 64.4223445 547.970557 64.2281555 544.698085 53.1665129 542.331836 46.7510361 531.054437 46.7510361L517.051175 46.7510361C513.598885 46.7510361 511.232657 48.8871368 511.232657 52.1883716L511.232657 79.7561671 521.596659 79.7561671C534.326888 79.5692381 533.773084 77.6200877 534.139895 68.8815174 535.053314 67.9105723 538.325764 67.9105723 539.231986 68.8815174 539.052083 73.7362645 538.872393 77.2316884 538.872393 82.6690239 538.872393 88.1063381 539.045057 91.2133839 539.231986 96.8449084 538.325764 97.8158535 535.053314 97.8158535 534.139895 96.8449084 533.773084 89.6598716 534.506706 85.9702587 521.596659 85.9702587L511.247028 85.9702587 511.247028 85.9630626zM617.066276 39.9543774C647.431875 39.9543774 662.341361 60.1501645 662.341361 85.9630626 662.341361 119.939139 639.793717 130.029836 619.612322 130.029836 605.062452 130.029836 598.510334 129.641458 593.065823 129.641458 585.060875 129.641458 580.335573 129.835626 572.697435 130.029836 571.60422 128.864702 571.60422 124.786711 572.697435 123.621555 583.795037 122.65061 585.787279 122.068043 585.787279 105.957465L585.787279 64.0195742C585.787279 47.9089955 583.795037 47.1322181 572.697435 46.3554619 571.60422 45.1903277 571.60422 41.1123368 572.697435 39.9471813 580.515391 40.141349 585.060875 40.3355806 592.886005 40.3355806 596.338274 40.3419677 612.333799 39.9543774 617.066276 39.9543774L617.066276 39.9543774zM615.23946 123.628752C635.241037 123.628752 646.525653 116.443715 646.525653 89.2714935 646.525653 69.0757065 642.339763 46.3626581 611.787192 46.3626581 604.695641 46.3626581 600.157353 47.5277923 600.157353 52.3825606L600.157353 114.890203C600.157353 120.327517 601.42319 123.628752 615.23946 123.628752zM704.329581 105.964639C704.329581 122.075239 706.321823 122.859192 717.419425 123.628752 718.505466 124.793907 718.505466 128.871898 717.419425 130.037032 709.594295 129.850103 705.048811 129.648654 697.230855 129.648654 689.225907 129.648654 684.500605 129.842822 676.862468 130.037032 675.776427 128.871898 675.776427 124.793907 676.862468 123.628752 687.96007 122.657806 689.952312 122.075239 689.952312 105.964639L689.952312 64.0267703C689.952312 47.9161703 687.96007 47.1394142 676.862468 46.3626581 675.776427 45.1975239 675.776427 41.1195329 676.862468 39.9543774 684.687598 40.1485452 689.225907 40.3427555 697.051037 40.3427555 705.048811 40.3427555 709.781288 40.1558265 717.419425 39.9543774 718.505466 41.1195329 718.505466 45.1975239 717.419425 46.3626581 706.321823 47.3336032 704.329581 47.9161703 704.329581 64.0267703L704.329581 105.964639zM769.045243 123.628752C770.138458 124.793907 770.138458 128.871898 769.045243 130.037032 762.313328 129.850103 753.229535 129.648654 745.771194 129.648654 738.686861 129.648654 736.320612 129.842822 729.588675 130.037032 728.502656 128.871898 728.502656 124.793907 729.588675 123.628752 737.500138 123.046185 742.973412 121.845091 747.777828 109.848441L788.198145 8.83361032C790.269501 3.62644452 791.643217 1.90031032 794.333121 1.90031032 796.879167 1.90031032 797.914835 3.97886323 799.23822 7.73319871L836.522727 112.955487C839.888685 122.952699 845.836647 122.952699 852.885043 123.628752 853.978258 124.793907 853.978258 128.871898 852.885043 130.037032 846.153106 129.850103 839.608185 129.648654 832.149844 129.648654 825.06551 129.648654 815.061124 129.842822 808.329188 130.037032 807.243168 128.871898 807.243168 124.793907 808.329188 123.628752 816.988622 122.96707 824.490118 123.671971 821.785843 115.674155L810.695437 82.8632129 772.864322 82.8632129C768.505831 82.8632129 767.412615 83.6327729 766.499197 86.1644477L756.49481 114.307635C753.668265 122.283821 762.212625 123.118103 769.045243 123.628752L769.045243 123.628752zM807.78258 74.707231L790.147231 22.8728323 789.780441 22.8728323 771.562525 72.1252258C770.80014 74.2253458 772.109133 74.707231 776.143968 74.707231L807.78258 74.707231z"/>
    </g>
  </g>
</svg>
