<svg xmlns="http://www.w3.org/2000/svg" width="1130" height="720" viewBox="0 0 1130 720">
  <g fill="none">
    <rect width="1130" height="720" fill="#000000"/>
    <g fill="#FFFFFF" transform="translate(213 276)">
      <path d="M200.579945.764688383C160.496968 1.05126377 127.710287 45.6004528 127.710287 84.4576541 127.710287 125.348255 151.744274 175.228403 200.579945 175.066517 249.415617 174.904631 274.76281 121.204349 274.76281 84.4576541 274.76281 43.8678485 240.662994.478120113 200.579945.764688383zM200.579945 2.28880371C234.127848 2.28880371 243.178526 39.3398976 243.178526 84.4576541 243.178526 143.989417 232.260948 173.359543 200.579945 173.303587 168.898943 173.24763 158.59242 149.2095 158.59242 84.4576541 158.59242 43.8956541 167.032043 2.28880371 200.579945 2.28880371zM287.998427 85.5562299C287.818725 41.3428935 323.204918 2.17834974 353.159721.235213898 363.979798-.531345193 377.888173 4.42355442 386.008035 7.95323487 391.904227 10.516315 403.940365 6.80634973 406.077706.00000103070199L407.243309.00000103070199 407.243309 60.2269497 406.077706 60.2269497C406.077706 57.65945 394.924132 1.74941542 353.159721 1.74941542 322.31118 1.74941542 319.331058 55.9924633 319.331058 85.5562299 319.331058 115.119996 320.229706 173.646179 356.228591 173.646179 373.667437 173.646179 386.575819 166.01657 389.922176 150.581547L389.922176 103.649205 375.284463 103.649205 375.284463 101.650032 432.022788 101.650032 432.022788 103.649205 418.028441 103.649205 418.028441 172.263972 416.888886 172.263972C416.888886 172.263972 414.613905 162.363782 403.069259 162.396784 388.314046 162.438965 374.398625 175.258264 357.435898 175.102225 312.575787 174.689559 288.178128 129.769569 287.998427 85.5562299L287.998427 85.5562299zM17.6665341 6.6971341L.000019466006 6.6971341.000019466006 4.71126851 61.8869803 4.71126851 61.8869803 6.6971341 46.3610806 6.6971341 90.5808863 126.784231C104.408485 84.2130043 115.120598 52.7443765 129.536194 6.6971341L114.179178 6.6971341 114.179178 4.71126851 146.855761 4.71126851 146.855761 6.6971341 131.975148 6.6971341 78.2306806 174.241821 17.6665341 6.6971341zM440.687091 133.222355L440.407398 6.5042382 423.591492 6.5042382 423.591492 4.60608103 485.544711 4.60608103 485.544711 6.5042382 468.738556 6.5042382 469.111837 145.443883C472.832257 161.35367 479.446969 173.425595 502.045695 173.605323 524.64442 173.785051 540.007699 160.236769 545.717216 141.721472L545.717216 6.5042382 526.480291 6.5042382 526.480219 4.66199835 683.929507 4.66199835 684.257097 65.4918108 682.743906 65.4918108C679.823637 26.216265 664.669025 11.3729382 638.165054 7.0426159 629.044986 5.55253349 619.477267 6.65715147 607.381917 6.56313038L607.381917 84.198009C617.914542 85.0116676 629.133876 84.3459618 636.694564 77.852158 643.569826 71.9470126 645.513232 58.3035917 646.018673 52.7608592L647.349885 52.7608592 647.349885 120.35672 645.909215 120.35672C645.493091 120.35672 644.940038 103.393755 636.694564 95.3459745 628.395002 87.2454782 617.826364 85.2538195 607.381917 87.1837606L607.381917 170.114707C622.134923 170.114707 633.894713 171.36437 644.107221 168.564532 675.150907 160.053656 686.079374 133.863494 685.995679 107.595804L687.722021 107.595804 687.722021 172.078078 564.222597 172.078078 564.222597 170.114707 578.186555 170.114707 578.186555 6.5042382 548.016253 6.5042382 548.016253 141.721472C544.596734 154.659233 532.098569 176.063081 500.068697 175.916977 470.288114 175.781133 440.751356 162.355103 440.687091 133.222355L440.687091 133.222355z"/>
    </g>
  </g>
</svg>
