<?xml version="1.0" encoding="utf-8"?>
<!-- Generator: Adobe Illustrator 16.0.0, SVG Export Plug-In . SVG Version: 6.00 Build 0)  -->
<!DOCTYPE svg PUBLIC "-//W3C//DTD SVG 1.1//EN" "http://www.w3.org/Graphics/SVG/1.1/DTD/svg11.dtd">
<svg version="1.1" id="Layer_1" xmlns="http://www.w3.org/2000/svg" xmlns:xlink="http://www.w3.org/1999/xlink" x="0px" y="0px"
	 width="1130px" height="720px" viewBox="-85 -278 1130 720" enable-background="new -85 -278 1130 720" xml:space="preserve">
<rect x="-85" y="-278" fill="#FFFFFF" stroke="#231F20" stroke-miterlimit="10" width="1130" height="720"/>
<g id="Col_1" display="none">
	<rect x="-931.9" y="-4349.5" display="inline" fill="#D5D5D5" width="6178.6" height="5021"/>
</g>
<g id="Col_2" display="none">
	<rect x="68.1" y="-4349.5" display="inline" fill="#D5D5D5" width="5178.6" height="5021"/>
</g>
<g id="Col_5" display="none">
	<rect x="-3134.1" y="-4349.5" display="inline" fill="#D5D5D5" width="5178.6" height="5021"/>
</g>
<g id="Col_6" display="none">
	<rect x="-2138.4" y="-4349.5" display="inline" fill="#D5D5D5" width="5178.6" height="5021"/>
</g>
<g id="Col_7" display="none">
	<rect x="-2048.8" y="-4349.5" display="inline" fill="#D5D5D5" width="6105.399" height="5021"/>
</g>
<g>
	<g>
		<g>
			<g>
				<defs>
					<rect id="SVGID_1_" x="829.1" width="7.301" height="164"/>
				</defs>
				<clipPath id="SVGID_2_">
					<use xlink:href="#SVGID_1_"  overflow="visible"/>
				</clipPath>
				<g clip-path="url(#SVGID_2_)">
				</g>
			</g>
		</g>
	</g>
	<g>
		<g>
			<g>
				<defs>
					<rect id="SVGID_3_" x="814.9" width="14.199" height="164"/>
				</defs>
				<clipPath id="SVGID_4_">
					<use xlink:href="#SVGID_3_"  overflow="visible"/>
				</clipPath>
				<g clip-path="url(#SVGID_4_)">
				</g>
			</g>
		</g>
	</g>
	<g>
		<g>
			<g>
				<defs>
					<rect id="SVGID_5_" x="817.9" y="1.4" width="15.6" height="158.2"/>
				</defs>
				<clipPath id="SVGID_6_">
					<use xlink:href="#SVGID_5_"  overflow="visible"/>
				</clipPath>
				<rect x="814.3" y="-2.2" clip-path="url(#SVGID_6_)" fill="#00BAFF" width="29" height="165.4"/>
			</g>
		</g>
	</g>
	<g>
		<g>
			<g>
				<defs>
					<path id="SVGID_7_" d="M740,129.5h47v-10.7h-21V76.1c3.6-7.2,12.3-14.6,23.9-14.6c3.3,0,7.199,0.5,9.8,1.4V51.2
						c-3.101-1.4-7.2-2-10.3-2c-13.7,0-21.9,9.4-25.7,19V51H737v10.7h17v57.1h-13.9L740,129.5L740,129.5z M659.4,83.4
						c1.6-15.9,10.1-23.9,23.199-23.9c13.4,0,21.7,7.8,23.7,23.9H659.4z M683.4,131.3c13.899,0,32-6,35.1-27.1h-12.1
						C704.2,115.1,696.3,121,683.8,121C668,121,659.9,111,659,92.9h59.7V90c0-31.6-19.2-40.9-35.5-40.9c-16.7,0-36.4,10.1-36.4,41.3
						C646.9,119.3,664.3,131.3,683.4,131.3z M613.5,131.3c5.6,0,11.9-1.1,15.6-3.1v-10.7c-4.199,1.8-10.1,2.9-14.6,2.9
						c-11.9,0-16.7-6.7-16.7-23.301V61.6H630.9V50.9H597.8V25.8h-12.1v25.1h-18.3v10.7h18.3v37.1
						C585.6,123.9,596.5,131.3,613.5,131.3z M528.7,30.5h16.1V14.8h-16.1V30.5z M514.3,129.5h43.9v-10.7h-15.4V51h-31.3v10.7h19.2
						v57.1h-16.5L514.3,129.5L514.3,129.5z M438.9,129.5h47v-10.7h-21V76.1c3.6-7.2,12.3-14.6,23.899-14.6c3.3,0,7.2,0.5,9.8,1.4
						V51.2c-3.1-1.4-7.199-2-10.3-2c-13.7,0-21.899,9.4-25.7,19V51h-26.8v10.7h17v57.1H438.9V129.5L438.9,129.5z M331.3,129.5h17.2
						l19.2-75.4l19.399,75.4h17L422.9,28.2h-13.2l-10.5,63.7l-3.601,29l-20.8-80.5h-14.1l-20.4,80.5l-4-29l-10.5-63.7h-13
						L331.3,129.5z M208.6,76.5L220,41.6l11.4,35.3l5.8,17h-34.4L208.6,76.5z M177.2,129.5h13.7l8.5-24.8H241l8.3,24.8h14.1
						l-36-101.3h-14.1L177.2,129.5z M140.9,30.5H157V14.8h-16.1V30.5z M126.4,129.5h43.9v-10.7h-15.4V51h-31.3v10.7h19.2v57.1h-16.4
						V129.5z"/>
				</defs>
				<clipPath id="SVGID_8_">
					<use xlink:href="#SVGID_7_"  overflow="visible"/>
				</clipPath>
				<rect x="120.1" y="11.2" clip-path="url(#SVGID_8_)" width="683.2" height="123.7"/>
			</g>
		</g>
	</g>
</g>
</svg>
