<?xml version="1.0" encoding="utf-8"?>
<!-- Generator: Adobe Illustrator 16.0.0, SVG Export Plug-In . SVG Version: 6.00 Build 0)  -->
<!DOCTYPE svg PUBLIC "-//W3C//DTD SVG 1.1//EN" "http://www.w3.org/Graphics/SVG/1.1/DTD/svg11.dtd">
<svg version="1.1" id="Layer_1" xmlns="http://www.w3.org/2000/svg" xmlns:xlink="http://www.w3.org/1999/xlink" x="0px" y="0px"
	 width="1130px" height="720px" viewBox="0 0 1130 720" enable-background="new 0 0 1130 720" xml:space="preserve">
<rect width="1130" height="720"/>
<g id="Col_1" display="none">
	<rect x="-931.9" y="-4349.5" display="inline" fill="#D5D5D5" width="6178.6" height="5021"/>
</g>
<g id="Col_2" display="none">
	<rect x="68.1" y="-4349.5" display="inline" fill="#D5D5D5" width="5178.6" height="5021"/>
</g>
<g id="Col_5" display="none">
	<rect x="-3134.1" y="-4349.5" display="inline" fill="#D5D5D5" width="5178.6" height="5021"/>
</g>
<g id="Col_6" display="none">
	<rect x="-2138.4" y="-4349.5" display="inline" fill="#D5D5D5" width="5178.6" height="5021"/>
</g>
<g id="Col_7" display="none">
	<rect x="-2048.8" y="-4349.5" display="inline" fill="#D5D5D5" width="6105.398" height="5021"/>
</g>
<g id="Layer_1_1_">
	<g>
		<path fill="#FFFFFF" d="M323.538,408.956h15l-7.718-122.39h-20.326L279.735,374.5c-2.5,7.173-4.239,12.717-6.087,19.562
			c-1.086-5.218-3.152-13.695-4.674-18.584L239.3,286.566h-20.76l-9.13,122.39h14.565L228.648,332
			c0.653-11.413,1.522-23.587,1.522-31.086c2.065,7.391,5.543,18.151,7.5,24.13l27.934,83.912h16.087l28.695-83.26
			c3.152-9.13,5.217-17.282,7.391-25c0,7.391,0.761,22.717,1.086,29.239L323.538,408.956z M419.081,363.63
			c0,20.327-7.827,35.326-26.195,35.326c-17.5,0-25.87-10.979-25.87-32.392c0-20.216,8.152-35.435,26.521-35.435
			C411.254,331.13,419.081,342.326,419.081,363.63 M434.08,363.63c0-27.283-12.065-44.021-38.478-44.021
			c-28.478,0-43.695,17.826-43.695,47.064c0,27.281,12.065,44.021,38.478,44.021C418.862,410.693,434.08,392.868,434.08,363.63
			 M506.144,408.956h14.565v-62.391c0-18.152-11.413-27.065-26.739-27.065c-12.282,0-22.173,5.435-29.672,10l-2.283-8.261H449.95
			v87.823h14.564v-69.889c7.717-3.804,16.412-7.174,24.998-7.174c10.327,0,16.74,4.891,16.74,16.304L506.144,408.956
			L506.144,408.956z M603.315,363.63c0,20.327-7.825,35.326-26.194,35.326c-17.5,0-25.869-10.979-25.869-32.392
			c-0.109-20.216,8.153-35.435,26.521-35.435C595.382,331.13,603.315,342.326,603.315,363.63 M618.315,363.63
			c0-27.283-12.064-44.021-38.478-44.021c-28.479,0-43.695,17.826-43.695,47.064c0,27.281,12.065,44.021,38.478,44.021
			C603.099,410.693,618.315,392.868,618.315,363.63 M657.988,410.584c8.479,0,16.305-2.064,21.85-4.346l-1.74-9.674
			c-3.151,0.652-8.587,1.849-13.151,1.849c-6.957,0-11.522-2.827-11.522-12.392v-53.261h21.631l1.74-11.521h-23.479l-0.327-25
			l-10.65,2.609l-3.152,21.63l-14.674,3.805v8.043l14.565,0.217v57.936C638.968,404.607,646.469,410.584,657.988,410.584
			 M736.466,408.739l30.435-87.608h-15.543l-18.152,55.76c-1.738,5.108-4.565,14.346-5.979,19.238
			c-1.412-4.893-4.564-14.13-6.306-19.021l-20.867-55.977h-15.87l33.912,87.825h3.806c-8.262,18.479-15,26.411-29.564,26.411
			c-3.696,0-9.239-0.653-12.718-1.955l-2.499,10.977c3.803,1.415,10.325,2.938,17.28,2.938
			C720.487,447.432,728.423,431.562,736.466,408.739 M834.726,363.521c0,24.455-13.15,35.543-29.564,35.543
			c-5.217,0-11.412-1.194-15.76-2.609V336.24c6.521-2.5,14.021-4.239,20.324-4.239C825.052,332,834.726,339.065,834.726,363.521
			 M849.725,361.891c0-31.085-14.674-42.499-34.78-42.499c-10,0-18.913,2.825-25.543,7.173l-2.501-5.435h-12.064v126.302
			l14.565-3.478v-35.979c5.107,1.959,10.978,2.828,15.868,2.828C827.009,410.693,849.725,397.76,849.725,361.891 M919.833,355.479
			h-41.956c1.412-12.066,7.718-24.348,21.521-24.348C912.115,331.13,918.964,340.261,919.833,355.479 M934.941,361.021
			c0-25.217-11.195-41.413-33.913-41.413c-26.087,0-38.805,19.89-38.805,47.064c0,28.37,15.869,44.021,41.086,44.021
			c12.283,0,21.306-1.954,29.021-5.435l-2.282-10.543c-7.718,2.281-14.021,3.478-24.349,3.478c-17.173,0-28.478-12.065-28.478-30.76
			v-1.194h56.847L934.941,361.021z"/>
	</g>
</g>
</svg>
