<?xml version="1.0" encoding="utf-8"?>
<!-- Generator: Adobe Illustrator 16.0.0, SVG Export Plug-In . SVG Version: 6.00 Build 0)  -->
<!DOCTYPE svg PUBLIC "-//W3C//DTD SVG 1.1//EN" "http://www.w3.org/Graphics/SVG/1.1/DTD/svg11.dtd">
<svg version="1.1" id="Layer_1" xmlns="http://www.w3.org/2000/svg" xmlns:xlink="http://www.w3.org/1999/xlink" x="0px" y="0px"
	 width="1130px" height="720px" viewBox="-85 -278 1130 720" enable-background="new -85 -278 1130 720" xml:space="preserve">
<rect x="-85" y="-278" fill="#00417B" width="1130" height="720"/>
<g id="Col_1" display="none">
	<rect x="-931.9" y="-4349.5" display="inline" fill="#D5D5D5" width="6178.6" height="5021"/>
</g>
<g id="Col_2" display="none">
	<rect x="68.1" y="-4349.5" display="inline" fill="#D5D5D5" width="5178.6" height="5021"/>
</g>
<g id="Col_5" display="none">
	<rect x="-3134.1" y="-4349.5" display="inline" fill="#D5D5D5" width="5178.6" height="5021"/>
</g>
<g id="Col_6" display="none">
	<rect x="-2138.4" y="-4349.5" display="inline" fill="#D5D5D5" width="5178.6" height="5021"/>
</g>
<g id="Col_7" display="none">
	<rect x="-2048.8" y="-4349.5" display="inline" fill="#D5D5D5" width="6105.399" height="5021"/>
</g>
<g>
	<path id="path2384" fill="#B2C9D9" d="M113.424,58.507H96.007l0.102-18.537l-25.768,3.87v14.361l-11.712,1.731v11.408h12.12
		l-0.102,50.008c0.102,1.834,2.954,18.027,20.574,17.01c19.963-1.122,21.592-3.464,23.426-4.584c-0.103,0.102,0-9.777,0-9.777
		l-10.797,0.306c0,0-6.11-0.407-7.027-7.131l-0.204-45.627l16.907,0.101V58.507H113.424z"/>
	<path id="path2396" fill="#B2C9D9" d="M150.905,23.063l-34.731,4.991v6.62l9.268,4.176l0.103,86.878l-8.76,3.462l0.102,7.13h42.675
		v-7.026l-8.555-3.77V74.192c0,0,4.888-2.138,11.61-2.138c6.722,0,9.88,4.277,9.88,7.027c0,2.648,0,46.647,0,46.647l-7.842,3.462
		v7.13h42.573v-6.926l-8.759-4.277V72.461c0,0,0.204-16.704-19.148-15.889c-11.814,0.102-20.166,3.769-28.313,10.287
		C150.802,66.859,150.802,23.063,150.905,23.063z"/>
	<path fill="#B2C9D9" d="M280.56,99.451c1.019-17.111-0.815-44.407-35.342-42.777c-33.917,1.63-38.193,27.5-37.99,44.305
		c1.935,27.092,15.888,37.176,42.166,37.583c20.675-0.714,28.212-11.611,28.212-11.611v-7.333c0,0-9.778,2.953-19.962,2.852
		c-24.139-0.306-23.935-23.018-23.935-23.018H280.56z M233.708,90.387c0,0-0.102-11,2.038-18.028
		c1.731-5.602,5.296-7.435,9.37-7.435c6.824,0,8.555,3.769,9.269,8.555c1.12,6.722,0.917,15.99,0.814,15.99L233.708,90.387z"/>
	<path fill="#FFFFFF" d="M346.252,119.516h-30.861c0,0-4.583-0.51-4.787-5.195c-0.204-4.684,3.157-5.907,3.157-5.907
		s6.621,1.937,13.444,1.937c6.926,0,33.917-2.852,33.917-26.277c0-10.593-8.352-16.704-8.352-16.704l14.972,3.973l-0.204-15.38
		l-21.592,3.972c0,0-11.203-4.074-19.147-4.074c-5.398,0-32.999,2.139-34.018,26.379c-0.713,17.11,13.75,23.527,13.648,23.527
		c-0.102,0-13.749,8.453-13.852,18.944c-0.102,10.083,11.509,13.239,12.324,13.444h0.102c0,0,0,0-0.102,0
		c-1.12,0-18.843,3.259-18.843,15.786c0,11.916,19.657,17.722,40.537,17.823c20.879,0.104,43.693-5.806,43.693-30.452
		C370.188,116.664,346.252,119.516,346.252,119.516z M326.493,65.229c9.574,0,9.677,9.879,9.677,14.055v7.436
		c0,0,1.324,13.342-8.861,13.445c-10.083,0-9.879-7.741-9.879-13.445c0-5.704,0-8.759,0-8.759S316.92,65.332,326.493,65.229z
		 M326.493,162.292c-14.258,0-19.351-5.806-19.351-11.407c0-5.601,3.463-7.944,3.463-7.944h30.962c0,0,6.111,0.713,6.111,6.111
		C347.679,157.403,340.753,162.292,326.493,162.292z"/>
	<path id="path3188_1_" fill="#FFFFFF" d="M404.918,56.47l-34.833,5.398v6.824l8.962,4.278v43.795c0,0,0.509,21.489,21.491,21.694
		c17.11,0.202,25.666-11.713,25.666-11.713v11.508l33.712-4.073v-6.213l-8.658-4.991V56.674l-34.628,5.398v6.519l9.166,4.583v46.647
		c0,0-2.342,1.935-9.879,2.547c-7.537,0.609-11-6.622-11-6.622V56.47z"/>
	<path id="path3190_1_" fill="#FFFFFF" d="M467.046,62.072c0,0,16.602-6.009,30.352-6.009c13.648,0,33.509,4.685,33.509,21.694
		c0,17.009,0,47.157,0,47.157l8.453,4.48v5.602c0,0-6.009,3.259-14.972,3.259c-8.962,0-16.601-4.48-16.601-11.305
		c-1.937,0-2.649,11.204-23.527,11.204c-24.343,0-22.406-21.592-22.406-21.999c0-0.409-0.715-16.094,17.008-19.454
		c17.518-3.361,25.666-4.686,25.666-4.686l-0.103-15.888c0,0-1.426-9.574-9.675-9.472c-8.25,0.102-8.25,0.102-8.25,0.102
		l-5.806,15.89h-13.648V62.072z M505.241,121.45v-21.389c0,0-17.417-1.527-17.52,12.426c0,10.49,6.621,11.714,9.574,11.714
		C500.759,123.997,502.999,122.775,505.241,121.45z"/>
	<path id="path3195" fill="#FFFFFF" d="M574.905,55.757l-34.017,5.398v7.129l8.759,4.176v52.656l-8.149,4.177v6.721h44.713v-6.417
		l-10.694-4.276l0.102-43.491c0,0,6.824-2.75,13.648-2.75c6.926,0,10.287,0.815,10.287,0.815V56.98c0,0-14.564-4.584-24.852,15.786
		C574.804,72.868,574.905,55.757,574.905,55.757z"/>
	<path id="path3197" fill="#FFFFFF" d="M642.331,29.786v6.926l8.555,4.074v18.638c0,0-6.009-2.852-13.24-2.852
		s-36.768,1.121-37.584,41.657c-0.813,40.639,30.76,40.026,30.454,40.026s14.463,0.407,21.083-8.248l-0.102,8.147l33.407-4.074
		v-6.62l-8.048-4.075l-0.102-99.099L642.331,29.786z M650.784,70.016v52.759c0,0-2.751,1.426-7.843,1.426
		c-8.353,0-15.379-5.704-15.379-23.936c0-15.99,2.342-28.518,9.37-31.879C643.96,65.127,650.479,69.609,650.784,70.016z"/>
	<path id="path3220" fill="#FFFFFF" d="M722.995,37.323c0,7.842-6.314,14.157-14.157,14.157c-7.842,0-14.157-6.314-14.157-14.157
		c0-7.843,6.315-14.157,14.157-14.157C716.681,23.166,722.995,29.479,722.995,37.323z M722.385,56.063l-35.24,4.991v6.824
		l9.268,4.481v52.657l-8.453,3.871v7.128h42.472v-6.926l-8.046-3.972V56.063z"/>
	<path id="path3224" fill="#FFFFFF" d="M738.578,61.97c0,0,16.602-6.009,30.353-6.009c13.646,0,33.508,4.686,33.508,21.694
		c0,17.009,0,47.157,0,47.157l8.453,4.482v5.601c0,0-6.01,3.26-14.972,3.26c-8.963,0-16.602-4.481-16.602-11.306
		c-1.935,0-2.648,11.204-23.528,11.204c-24.341,0-22.406-21.594-22.406-22.001s-0.713-16.092,17.01-19.452
		c17.518-3.361,25.665-4.686,25.665-4.686l-0.102-15.889c0,0-1.426-9.574-9.676-9.472c-8.249,0.102-8.249,0.102-8.249,0.102
		l-5.806,15.889h-13.648V61.97z M776.67,121.349V99.96c0,0-17.416-1.527-17.518,12.426c0,10.49,6.62,11.712,9.573,11.712
		C772.189,123.896,774.531,122.672,776.67,121.349z"/>
	<path id="path3228" fill="#FFFFFF" d="M846.742,55.859l-34.73,5.5v6.62l9.371,4.379v53.064l-8.557,3.464v7.332h42.472v-7.231
		l-7.843-3.769v-51.23c0,0,4.177-1.935,10.39-1.935s10.999,2.75,10.999,8.86c0,6.111,0,44.407,0,44.407l-8.759,4.276v6.519h43.286
		v-7.027l-8.453-3.564V76.331c0,0,0.611-19.657-19.352-19.657s-28.722,10.491-28.722,10.491L846.742,55.859z"/>
</g>
</svg>
